<?xml version="1.0" encoding="utf-8"?>
<!-- Generator: Adobe Illustrator 19.1.0, SVG Export Plug-In . SVG Version: 6.00 Build 0)  -->
<svg version="1.1" id="Layer_1" xmlns="http://www.w3.org/2000/svg" xmlns:xlink="http://www.w3.org/1999/xlink" x="0px" y="0px"
	 viewBox="-425.2 258.3 404.5 51.7" style="enable-background:new -425.2 258.3 404.5 51.7;" xml:space="preserve">
<style type="text/css">
	.st0{fill:#00549B;}
	.st1{fill:none;stroke:#00549B;stroke-miterlimit:10;}
</style>
<path class="st0" d="M-417.3,302.2c-0.9,0-1.9,0-3,0.1c-1.1,0.1-2,0.1-2.8,0.1c-0.2,0-0.4,0-0.7-0.1c-0.3,0-0.4-0.2-0.4-0.6
	c0-0.3,0.1-0.5,0.4-0.8c0.4-0.1,1-0.3,2-0.5c0.3,0,0.7-0.1,1-0.2c0.3-0.1,0.6-0.3,0.9-0.6c0.3-0.2,0.5-0.6,0.7-1.2
	c0.2-0.5,0.3-1.2,0.3-2.2v-30c0-0.3-0.1-0.5-0.4-0.7c-0.4-0.2-0.8-0.3-1.2-0.3c-0.5-0.1-0.9-0.1-1.4-0.2c-0.5,0-1-0.1-1.4-0.1
	c-0.7,0-1.2-0.1-1.5-0.2c-0.3,0-0.4-0.2-0.4-0.6c0-0.3,0.1-0.5,0.3-0.6c0.2-0.1,0.4-0.3,0.6-0.3c0.3-0.1,0.5-0.1,0.8-0.1
	c0.3,0,0.5,0,0.7,0h5.8c1.6,0,3.2-0.1,4.8-0.2c1.6-0.1,3.4-0.2,5.5-0.2c3.4,0,6.5,0.4,9.5,1.3c2.9,0.9,5.5,2.2,7.7,4
	c2.2,1.8,3.9,4.1,5.2,6.9c1.3,2.8,1.9,6.1,1.9,10c0,2.4-0.5,4.7-1.6,6.8c-1,2.1-2.5,4-4.3,5.6c-1.8,1.6-3.9,2.8-6.3,3.7
	s-5,1.4-7.7,1.4h-15 M-413.5,294.2c0,1.1,0.2,2.1,0.7,2.9c0.5,0.8,1.1,1.5,1.9,2c0.8,0.5,1.6,0.9,2.6,1.2c1,0.3,2,0.4,3,0.4
	c0.9,0,1.9-0.1,3-0.4c1.2-0.3,2.4-0.7,3.6-1.2s2.5-1.2,3.7-2.1c1.2-0.9,2.4-2,3.3-3.2c1-1.3,1.8-2.7,2.4-4.4
	c0.6-1.7,0.9-3.6,0.9-5.8c0-2.2-0.3-4.2-0.9-6c-0.6-1.8-1.4-3.4-2.4-4.8c-1-1.4-2.2-2.6-3.6-3.6c-1.3-1-2.8-1.9-4.2-2.6
	c-1.5-0.7-2.9-1.2-4.4-1.5s-2.9-0.5-4.2-0.5s-2.4,0.1-3.1,0.2c-0.7,0.1-1.3,0.3-1.6,0.5c-0.3,0.2-0.5,0.4-0.6,0.7
	c-0.1,0.3-0.1,0.5-0.1,0.7C-413.5,266.7-413.5,294.2-413.5,294.2z"/>
<path class="st0" d="M-369.3,303.4c-1.5,0-2.7-0.2-3.7-0.6c-1-0.4-1.8-1-2.4-1.9c-0.6-0.8-1-1.8-1.2-2.9c-0.2-1.1-0.4-2.3-0.4-3.7
	c0-1,0-2.1,0-3.3s0-2.4,0-3.6c0-1.2,0-2.4,0-3.6c0-1.2,0-2.2,0-3.2c0-0.5-0.2-0.8-0.6-0.9c-0.4-0.1-0.8-0.2-1.2-0.3
	c-0.8-0.2-1.3-0.4-1.5-0.5c-0.3-0.1-0.4-0.3-0.4-0.5c0-0.3,0.1-0.5,0.4-0.5s0.7-0.1,1.2-0.1s0.9,0,1.4,0.1c0.4,0,0.9,0.1,1.4,0.1
	s0.9,0,1.4-0.1c0.5,0,0.9-0.1,1.4-0.1c0.4,0,0.7,0.1,0.8,0.3c0.1,0.2,0.2,0.5,0.2,1c0,2.9,0,5.7-0.1,8.5c0,2.8-0.1,5.7-0.1,8.5
	c0,1.3,0.4,2.3,1.3,3c0.9,0.7,2.1,1.1,3.7,1.1c1.8,0,3.2-0.2,4.2-0.5c1-0.3,1.8-0.8,2.3-1.3s0.8-1.1,1-1.8c0.1-0.7,0.2-1.3,0.2-2
	c0-2.3,0-4.6,0.1-6.9c0-2.3,0.1-4.5,0.1-6.8c0-0.2,0-0.3-0.1-0.4c-0.1-0.1-0.2-0.2-0.4-0.3c-0.2-0.1-0.6-0.2-1-0.3s-1-0.3-1.8-0.5
	c-0.3-0.1-0.6-0.2-1.1-0.4s-0.7-0.4-0.7-0.6c0-0.2,0.1-0.4,0.4-0.4c0.3-0.1,0.6-0.1,1-0.1c0.6,0,1.1,0,1.6,0.1
	c0.5,0,1.1,0.1,1.6,0.1c0.6,0,1.3,0,1.9-0.1c0.6,0,1.3-0.1,1.9-0.1c0.2,0,0.5,0.1,0.8,0.2c0.3,0.1,0.5,0.5,0.5,1.1
	c0,3.2,0,6.5-0.1,9.7c-0.1,3.2-0.1,6.5-0.1,9.7c0,0.7,0.2,1.1,0.6,1.3c0.4,0.2,0.8,0.3,1.1,0.3c1.2,0,2.1,0,2.6,0.1
	c0.5,0,0.7,0.2,0.7,0.6c0,0.3-0.1,0.4-0.3,0.5s-0.5,0.2-1,0.3c-2.3,0.3-4,0.6-5.3,0.9c-1.3,0.3-2.1,0.4-2.4,0.4
	c-0.2,0-0.4-0.1-0.4-0.3c0-0.2-0.1-0.4-0.1-0.7v-1.5c0-0.5-0.1-0.8-0.4-0.8c-0.3,0-0.6,0.2-1.1,0.6c-0.5,0.4-1.1,0.8-1.8,1.3
	c-0.7,0.5-1.6,0.9-2.6,1.3C-366.8,303.2-368,303.4-369.3,303.4"/>
<path class="st0" d="M-345,265.8c0-0.9-0.2-1.5-0.5-1.8c-0.3-0.4-0.7-0.6-1.1-0.8c-0.4-0.1-0.8-0.3-1.1-0.4
	c-0.3-0.1-0.5-0.3-0.5-0.6c0-0.2,0.1-0.4,0.3-0.5c0.2-0.1,0.6-0.2,1-0.4l4.4-1.7c0.2-0.1,0.3-0.1,0.5-0.1c0.2,0,0.4,0,0.6,0
	c0.2,0,0.3,0.1,0.5,0.2c0.2,0.2,0.2,0.5,0.2,0.9v26.3c0,0.7,0.2,1,0.6,1c0.1,0,0.4-0.1,1-0.4c0.6-0.3,1.2-0.6,2-1.1
	c0.8-0.4,1.6-1,2.5-1.5c0.9-0.6,1.7-1.1,2.4-1.6s1.3-1,1.8-1.4s0.7-0.7,0.7-0.9c0-0.4-0.1-0.8-0.4-1c-0.3-0.2-0.5-0.4-0.8-0.6
	c-0.3-0.1-0.6-0.3-0.8-0.4c-0.3-0.2-0.4-0.4-0.4-0.6c0-0.2,0.1-0.3,0.3-0.4s0.4-0.2,0.6-0.2c0.7,0,1.5,0,2.3,0.1
	c0.9,0,1.7,0.1,2.6,0.1c0.8,0,1.7,0,2.5-0.1c0.9,0,1.6-0.1,2.3-0.1c0.3,0,0.6,0,0.8,0.1c0.3,0.1,0.4,0.3,0.4,0.6
	c0,0.2-0.1,0.3-0.4,0.5c-0.2,0.2-0.5,0.3-0.9,0.4c-0.3,0.1-0.7,0.2-1.1,0.4c-0.4,0.1-0.7,0.2-0.9,0.3c-0.5,0.2-1.4,0.7-2.7,1.4
	c-1.3,0.7-2.7,1.5-4.2,2.4c-1.4,0.9-2.7,1.7-3.8,2.4c-1.1,0.7-1.7,1.2-1.7,1.4c0,0.2,0.1,0.4,0.2,0.5c0.1,0.1,0.2,0.3,0.3,0.4
	l11.1,10c0.6,0.6,1.3,1,1.9,1.3c0.6,0.3,1.2,0.5,1.6,0.7c0.5,0.2,0.8,0.4,1.1,0.5c0.3,0.1,0.4,0.3,0.4,0.5c0,0.4-0.6,0.6-1.7,0.6
	c-0.7,0-1.4,0-2.2-0.1c-0.8-0.1-1.7-0.1-2.7-0.1c-0.9,0-1.7,0-2.4,0.1c-0.8,0.1-1.5,0.1-2.3,0.1c-0.7,0-1.2,0-1.5-0.1
	c-0.3-0.1-0.4-0.2-0.4-0.5c0-0.3,0.2-0.5,0.5-0.6c0.3-0.1,0.8-0.2,1.3-0.3c0.3,0,0.6-0.1,0.9-0.3c0.2-0.2,0.4-0.4,0.4-0.6
	c0-0.2-0.2-0.6-0.7-1l-9.7-9.1c-0.3-0.3-0.4-0.4-0.6-0.4c-0.3,0-0.4,0.1-0.4,0.3v9.1c0,0.7,0.2,1.2,0.5,1.5c0.3,0.3,0.6,0.5,0.9,0.5
	c0.5,0.2,1,0.3,1.3,0.4c0.4,0.1,0.5,0.2,0.5,0.5s-0.2,0.4-0.5,0.5c-0.3,0.1-0.7,0.1-1,0.1c-0.8,0-1.5,0-2.2-0.1
	c-0.7-0.1-1.4-0.1-2.1-0.1c-0.8,0-1.6,0-2.5,0.1c-0.9,0.1-1.6,0.1-2.1,0.1c-0.2,0-0.5,0-0.9-0.1c-0.4-0.1-0.6-0.2-0.6-0.5
	s0.1-0.5,0.3-0.6c0.2-0.1,0.5-0.2,0.8-0.3c0.4-0.1,0.8-0.2,1.2-0.3c0.4-0.1,0.7-0.2,1-0.4c0.3-0.2,0.5-0.4,0.7-0.8
	c0.2-0.3,0.2-0.9,0.2-1.5v-31.9"/>
<path class="st0" d="M-314.9,287.3c-0.1,0.2-0.1,0.5-0.1,0.9s0,0.8,0,1.3c0,1.4,0.1,2.7,0.4,4c0.3,1.3,0.7,2.4,1.3,3.4
	c0.7,1,1.6,1.8,2.8,2.4c1.2,0.6,2.8,0.9,4.8,0.9c1.2,0,2.2-0.1,2.9-0.4c0.7-0.3,1.2-0.5,1.6-0.9c0.4-0.3,0.7-0.6,0.9-0.9
	c0.2-0.3,0.4-0.4,0.7-0.4c0.4,0,0.6,0.2,0.6,0.5c0,0.1-0.2,0.5-0.5,1c-0.3,0.5-0.9,1.1-1.7,1.7c-0.8,0.6-1.7,1.2-2.9,1.7
	c-1.2,0.5-2.6,0.7-4.3,0.7c-3.5,0-6.3-1.2-8.2-3.5c-1.9-2.3-2.9-5.5-2.9-9.5c0-1.5,0.2-3,0.7-4.6s1.2-3.1,2.1-4.4
	c1-1.3,2.2-2.4,3.6-3.2c1.4-0.9,3.2-1.3,5.2-1.3c1.8,0,3.4,0.3,4.6,1c1.3,0.7,2.3,1.5,3,2.5c0.8,1,1.3,2,1.7,3
	c0.3,1,0.5,1.9,0.5,2.6c0,0.6-0.1,1-0.2,1.2c-0.2,0.2-0.5,0.3-1.1,0.3H-314.9 M-308.7,285.4c1.4,0,2.5-0.1,3.4-0.2
	c0.9-0.1,1.5-0.3,2-0.5c0.5-0.3,0.8-0.6,0.9-1c0.2-0.4,0.2-0.9,0.2-1.5c0-1.1-0.4-2-1.3-2.8c-0.9-0.7-2-1.1-3.4-1.1
	c-1.2,0-2.2,0.2-3.1,0.7c-0.9,0.5-1.7,1.1-2.3,1.8c-0.6,0.7-1.1,1.4-1.4,2.1c-0.3,0.7-0.5,1.3-0.5,1.9c0,0.1,0,0.2,0.1,0.3
	c0.1,0.1,0.3,0.1,0.6,0.2c0.4,0,0.9,0.1,1.7,0.1C-311.2,285.4-310.1,285.4-308.7,285.4z"/>
<path class="st0" d="M-59.6,268.5c1.5-1.1,3.7-2.1,5.3-3.2c1.5-1.1,3.2-3.2,4.8-2.8c1.5,0.4,3.4,2.7,4.6,3c1.2,0.4,2.6,1.8,4.6,2.8
	c2,1.1,4.1,2.8,4.1,2.8s-2.2,0.9-3.7-0.7c-1.5-1.6-1.9-0.9-4.4-1.8c-2.6-0.9-0.9-1.8-2.7-2.8c-1.9-1.1-2-2.5-4.4-0.5s-5.3,3.9-7.2,5
	c-0.6,0.3-1.4,1.1-2.4,2c0.4,1.8,0.8,3.7,1.4,5.7c4,1.2,8.6,2.3,10.5,2.2c3.6-0.3,8.8,1.9,10.7,2.2c1.9,0.3,11.8-0.6,13.9-0.3
	c0.1,0,0.3,0.1,0.4,0.1c1.1-3.6,1.8-6.9,2.3-10c-1-0.2-2.9-0.7-3.9-0.8c-1.3-0.1-5.9,1.7-5.9,1.7s0.5,0.6-0.3,1.5
	c-0.7,1-1.9,2.9-3.1,3.4c-1.2,0.5-3.9,1.6-3.9,1.6s4.9-2.2,3.5-2c-1.4,0.2-3.8-0.1-3.8-0.1l4.7-0.4c0,0,1.4-1.2,1.8-1.8
	c0.5-0.7,1-2.1-0.1-1.4c-1.1,0.7-7.9,2.6-7.9,2.6s5.1-1.6,6.4-2.5c1.3-0.9,3.9-2.1,5-2.5c0.1,0,1.6-0.5,2.3-1c0.5-0.3-2.7-2-2.3-2.1
	c0.1,0,0.8,0.3,0.9,0.3c0,0-0.1,0,0,0s0.1,0,0,0c0.2,0.1,1,0.6,1.4,0.7c1.4,0.4,1,1.2,1.5,1.2c1.6-0.4,3.3-0.1,4.1,0
	c0.7-5.1,0.7-9.4,0.7-12c-3.5,0.6-11.1,1.1-20,1.1c-10.4,0-19.1-0.6-21.4-1.4c0,2.6,0.2,7,1.1,12.4
	C-60.8,269.7-60.2,268.9-59.6,268.5 M-32.2,275.2c0,0,0.6,0.3,1.1,0.8c0.4,0.5-0.3,1.8-0.3,1.8s0-1.1-0.5-1.2
	C-32.7,276.3-32.2,275.2-32.2,275.2z M-32.9,276.6c0,0,0.2,0.3,0.5,1c0.3,0.8-0.6,2.2-0.6,2.2s0.3-1.4-0.2-1.8
	C-33.9,277.4-32.9,276.6-32.9,276.6z M-40.8,275.8c-0.9,0.1-1.9-1.2-1.9-1.2s1.4,0.6,1.8,0.2c0.7-0.5,1.7,0.5,1.7,0.5
	S-39.9,275.7-40.8,275.8z M-37.9,274.9c0,0-0.7,0-1.4-0.4c-0.6-0.4-0.4-1.9-0.4-1.9s0.4,1.2,1,1.1
	C-37.8,273.5-37.9,274.9-37.9,274.9z M-27.2,266.7c0,0-0.4,0.9,0,1.2c0.5,0.4-0.3,1.1-0.3,1.1s-0.4-0.4-0.6-1
	C-28.2,267.4-27.2,266.7-27.2,266.7z M-29.8,264.5c0,0,0.1,1.6,0.9,2c0.9,0.4,0.1,1.6,0.1,1.6s-0.3-0.2-0.9-1
	C-30.3,266.3-29.8,264.5-29.8,264.5z M-30.8,267.4c0.5-0.4,1,0.7,1,0.7s-0.6,0.3-1.2,0.2c-0.6-0.1-0.9-1.4-0.9-1.4
	S-31.2,267.7-30.8,267.4z"/>
<path class="st0" d="M-44.8,296c-4.9-2.2-8.8-0.5-6-3.9s-3.8-4.4,6.6-4.7c6.9-0.2,14.6-0.4,18.4-1.1c0.3-0.8,0.6-1.6,0.9-2.4
	c-0.6-0.6-1-0.5-9.8-0.5c-12,0-13.1-0.3-16.5,0.7c-2.4,0.7-3.7,0-6.7-0.3c3.1,8.5,8.3,17.8,16.8,26.2c3.4-3.4,6.2-6.9,8.6-10.4
	c-0.5-0.4-1.3-0.9-2.6-1.3C-41.3,296.1-39.9,298.2-44.8,296"/>
<path class="st0" d="M-37.3,288.2c-8.1,1.1-12.7,1.1-10.3,2.7c2,1.4,4.9,4,11.4,4.5c2.4,0.2,4.4,0.3,6,0.4c1.5-2.6,2.8-5.3,3.8-7.9
	C-29.6,287.8-33.3,287.6-37.3,288.2"/>
<path class="st0" d="M-28.8,268.6L-28.8,268.6C-28.7,268.7-28.7,268.7-28.8,268.6"/>
<path class="st0" d="M-263.4,277.9l-4.2-6.5c-0.3-0.4-0.6-1-0.8-1.3c0,0.4,0,1.8,0,2.4v5.4h-1.4v-10.4h1.6l4,6.4
	c0.3,0.4,0.7,1.2,0.9,1.5c0-0.4,0-1.9,0-2.5v-5.4h1.5v10.4H-263.4"/>
<rect x="-259.1" y="267.5" class="st0" width="1.6" height="10.4"/>
<path class="st0" d="M-250.8,278.1c-2.7,0-4.4-2.2-4.4-5.4c0-3.2,1.7-5.4,4.4-5.4c1.7,0,2.8,0.7,3.5,2l-1.4,0.9
	c-0.5-0.8-1.1-1.2-2.2-1.2c-1.8,0-2.8,1.5-2.8,3.8c0,2.3,1,3.8,2.8,3.8c1.1,0,1.8-0.4,2.3-1.3l1.3,0.9
	C-248,277.4-249.2,278.1-250.8,278.1"/>
<polyline class="st0" points="-238.6,277.9 -238.6,273.3 -243.4,273.3 -243.4,277.9 -244.9,277.9 -244.9,267.5 -243.4,267.5 
	-243.4,271.7 -238.6,271.7 -238.6,267.5 -237,267.5 -237,277.9 -238.6,277.9 "/>
<path class="st0" d="M-230.4,278.1c-2.6,0-4.4-2.1-4.4-5.4c0-3.2,1.8-5.4,4.5-5.4s4.4,2.1,4.4,5.4
	C-225.9,275.9-227.7,278.1-230.4,278.1 M-230.4,268.9c-1.7,0-2.8,1.4-2.8,3.8s1.2,3.8,2.9,3.8c1.7,0,2.8-1.4,2.8-3.8
	S-228.7,268.9-230.4,268.9z"/>
<polyline class="st0" points="-223.7,277.9 -223.7,267.5 -222.1,267.5 -222.1,276.4 -216.9,276.4 -216.9,277.9 -223.7,277.9 "/>
<path class="st0" d="M-208,277.9l-0.8-2.5h-4.2l-0.9,2.5h-1.6l3.8-10.4h1.7l3.8,10.4H-208 M-210.1,271.6c-0.3-0.7-0.7-2-0.8-2.4
	c-0.1,0.4-0.5,1.6-0.8,2.4l-0.8,2.4h3.2L-210.1,271.6z"/>
<path class="st0" d="M-201.3,278.1c-1.5,0-2.8-0.7-3.7-1.7l1.1-1.1c0.7,0.8,1.7,1.2,2.7,1.2c1.5,0,2.2-0.5,2.2-1.5
	c0-0.8-0.6-1.2-2.4-1.7c-2.2-0.7-3.3-1.2-3.3-3.1c0-1.8,1.5-2.9,3.4-2.9c1.4,0,2.5,0.5,3.4,1.4l-1.1,1.1c-0.7-0.7-1.4-1-2.4-1
	c-1.2,0-1.7,0.6-1.7,1.3s0.5,1.1,2.3,1.6c2.1,0.6,3.3,1.3,3.3,3.1C-197.4,276.8-198.6,278.1-201.3,278.1"/>
<path class="st0" d="M-187.9,278.1c-1.5,0-2.8-0.7-3.7-1.7l1.1-1.1c0.7,0.8,1.7,1.2,2.7,1.2c1.5,0,2.2-0.5,2.2-1.5
	c0-0.8-0.6-1.2-2.4-1.7c-2.2-0.7-3.3-1.2-3.3-3.1c0-1.8,1.5-2.9,3.4-2.9c1.4,0,2.5,0.5,3.4,1.4l-1.1,1.1c-0.7-0.7-1.4-1-2.4-1
	c-1.2,0-1.7,0.6-1.7,1.3s0.5,1.1,2.3,1.6c2.1,0.6,3.3,1.3,3.3,3.1C-184,276.8-185.2,278.1-187.9,278.1"/>
<path class="st0" d="M-177.8,278.1c-2.7,0-4.4-2.2-4.4-5.4c0-3.2,1.7-5.4,4.4-5.4c1.7,0,2.8,0.7,3.5,2l-1.4,0.9
	c-0.5-0.8-1.1-1.2-2.2-1.2c-1.8,0-2.8,1.5-2.8,3.8c0,2.3,1,3.8,2.8,3.8c1.1,0,1.8-0.4,2.3-1.3l1.3,0.9
	C-175,277.4-176.3,278.1-177.8,278.1"/>
<polyline class="st0" points="-165.6,277.9 -165.6,273.3 -170.4,273.3 -170.4,277.9 -172,277.9 -172,267.5 -170.4,267.5 
	-170.4,271.7 -165.6,271.7 -165.6,267.5 -164.1,267.5 -164.1,277.9 -165.6,277.9 "/>
<path class="st0" d="M-157.4,278.1c-2.6,0-4.4-2.1-4.4-5.4c0-3.2,1.8-5.4,4.5-5.4c2.6,0,4.4,2.1,4.4,5.4
	C-153,275.9-154.8,278.1-157.4,278.1 M-157.4,268.9c-1.7,0-2.8,1.4-2.8,3.8s1.2,3.8,2.9,3.8s2.8-1.4,2.8-3.8
	C-154.6,270.3-155.8,268.9-157.4,268.9z"/>
<path class="st0" d="M-146.8,278.1c-2.6,0-4.4-2.1-4.4-5.4c0-3.2,1.8-5.4,4.5-5.4s4.4,2.1,4.4,5.4
	C-142.4,275.9-144.2,278.1-146.8,278.1 M-146.8,268.9c-1.7,0-2.8,1.4-2.8,3.8s1.2,3.8,2.9,3.8c1.7,0,2.8-1.4,2.8-3.8
	C-144,270.3-145.2,268.9-146.8,268.9z"/>
<polyline class="st0" points="-140.1,277.9 -140.1,267.5 -138.6,267.5 -138.6,276.4 -133.4,276.4 -133.4,277.9 -140.1,277.9 "/>
<path class="st0" d="M-123.3,278.1c-2.6,0-4.4-2.1-4.4-5.4c0-3.2,1.8-5.4,4.5-5.4s4.4,2.1,4.4,5.4
	C-118.9,275.9-120.7,278.1-123.3,278.1 M-123.3,268.9c-1.7,0-2.8,1.4-2.8,3.8s1.2,3.8,2.9,3.8s2.8-1.4,2.8-3.8
	S-121.7,268.9-123.3,268.9z"/>
<polyline class="st0" points="-115.1,269 -115.1,271.7 -112.1,271.7 -112.1,273.3 -115.1,273.3 -115.1,277.9 -116.6,277.9 
	-116.6,267.5 -109.9,267.5 -109.9,269 -115.1,269 "/>
<polyline class="st0" points="-100,269 -100,277.9 -101.5,277.9 -101.5,269 -104.6,269 -104.6,267.5 -96.9,267.5 -96.9,269 
	-100,269 "/>
<polyline class="st0" points="-88.5,277.9 -88.5,273.3 -93.3,273.3 -93.3,277.9 -94.9,277.9 -94.9,267.5 -93.3,267.5 -93.3,271.7 
	-88.5,271.7 -88.5,267.5 -87,267.5 -87,277.9 -88.5,277.9 "/>
<polyline class="st0" points="-84.2,277.9 -84.2,267.5 -77.5,267.5 -77.5,269 -82.7,269 -82.7,271.6 -79.7,271.6 -79.7,273.1 
	-82.7,273.1 -82.7,276.4 -77.3,276.4 -77.3,277.9 -84.2,277.9 "/>
<polyline class="st0" points="-268.9,303.2 -268.9,285.5 -257.4,285.5 -257.4,288.1 -266.2,288.1 -266.2,292.5 -261.1,292.5 
	-261.1,295 -266.2,295 -266.2,300.6 -257.1,300.6 -257.1,303.2 -268.9,303.2 "/>
<path class="st0" d="M-241,303.2l-7.1-11.1c-0.4-0.7-1-1.7-1.3-2.2c0,0.7,0,3.1,0,4.1v9.2h-2.6v-17.7h2.7l6.7,10.8
	c0.5,0.7,1.2,2.1,1.5,2.5c0-0.7,0-3.2,0-4.2v-9.1h2.6v17.7H-241"/>
<path class="st0" d="M-224.6,303.2h-2.8l-6.2-17.7h2.9l3.7,11.3c0.3,1,0.8,2.6,1,3.2c0.2-0.6,0.7-2.2,1-3.3l3.6-11.2h2.8
	L-224.6,303.2"/>
<rect x="-213.6" y="285.5" class="st0" width="2.7" height="17.7"/>
<path class="st0" d="M-195.2,296l3.6,7.2h-3.1l-3.5-7h-4v7h-2.6v-17.7h7.8c3.1,0,5.7,1.6,5.7,5.3
	C-191.3,293.6-192.8,295.4-195.2,296 M-197,288h-5.2v5.7h5.2c1.8,0,3-0.9,3-2.8S-195.2,288-197,288z"/>
<path class="st0" d="M-179.7,303.5c-4.5,0-7.5-3.6-7.5-9.1s3.1-9.2,7.6-9.2s7.5,3.6,7.5,9.1C-172.1,299.9-175.1,303.5-179.7,303.5
	 M-179.7,287.9c-2.8,0-4.8,2.5-4.8,6.5s2.1,6.5,4.9,6.5s4.8-2.5,4.8-6.5S-176.8,287.9-179.7,287.9z"/>
<path class="st0" d="M-156,303.2l-7.1-11.1c-0.4-0.7-1-1.7-1.3-2.2c0,0.7,0,3.1,0,4.1v9.2h-2.6v-17.7h2.7l6.7,10.8
	c0.5,0.7,1.2,2.1,1.5,2.5c0-0.7,0-3.2,0-4.2v-9.1h2.6v17.7H-156"/>
<path class="st0" d="M-134.3,303.2v-9.4c0-1.1,0-2.6,0.1-3.1c-0.2,0.5-0.7,1.8-1.1,2.8l-4.3,10l-4.3-10c-0.4-1-0.9-2.3-1.1-2.8
	c0,0.5,0,2.1,0,3.1v9.4h-2.5v-17.7h2.7l4,9.4c0.4,1,1,2.3,1.2,3c0.3-0.7,0.8-2,1.2-3l3.9-9.4h2.8v17.7H-134.3"/>
<polyline class="st0" points="-125.7,303.2 -125.7,285.5 -114.3,285.5 -114.3,288.1 -123,288.1 -123,292.5 -117.9,292.5 -117.9,295 
	-123,295 -123,300.6 -113.9,300.6 -113.9,303.2 -125.7,303.2 "/>
<path class="st0" d="M-97.8,303.2l-7.1-11.1c-0.4-0.7-1-1.7-1.3-2.2c0,0.7,0,3.1,0,4.1v9.2h-2.6v-17.7h2.7l6.7,10.8
	c0.5,0.7,1.2,2.1,1.5,2.5c0-0.7,0-3.2,0-4.2v-9.1h2.6v17.7H-97.8"/>
<polyline class="st0" points="-82.6,288.1 -82.6,303.2 -85.3,303.2 -85.3,288.1 -90.4,288.1 -90.4,285.5 -77.4,285.5 -77.4,288.1 
	-82.6,288.1 "/>
<line class="st1" x1="-283.3" y1="262.7" x2="-283.3" y2="307"/>
</svg>
